
<global>
amp_veltrack=0
ampeg_release=0.50
</global>

<group>
ampeg_attack=0.01
ampeg_release=0.05
group_label=Sustain_P
lpc_hicc1=42
lpc_locc1=0

<region>
hikey=C7
hivel=127
lokey=f#6
lovel=1
lpc=AM9vQcVNDMIOixpCbfHFwahWXkFl8vzAcFENQcfvTcEgpWtBqwYKwblTNUDF9Cm/NX5sQICjzcB1tR5BHKyIwbWin0EmGSvBdzhRP61Qyz+oDzi+Qamnv1LD0z+UHXW+
lpc_rms=-22.99
offset=2070
pitch_keycenter=G6
sample=Clarinet_fall_PP_G6.opus
</region>

<region>
hivel=127
key=a3
lovel=1
lpc=i+HUQqDNRMM5W9xCOUvOwfkEFkBLnvTAe50eQDhhhMBjn0JBoHkEQUOwJUAyJJLASBd/wHszcEB3GkNAglrrwGz5h8CX6tNApL2kwDKYBMD62XNAMCU+wM54C8Aiz8xA
lpc_rms=-27.09
offset=800
sample=Clarinet_fall_PP_A3.opus
</region>

<region>
hikey=a4
hivel=127
lokey=g#4
lovel=1
lpc=9MiCQjBx8sL6XGNCzMstwYvkIUHsqhVA0ECIQKRsI8HyOfFAd5MfwEXZ4r/YJatA/24IwFMGrMAO0YA/wK/MwA7UJ0Fe4AfALiOWvSz6DT8aDX1AQCiYwBKUP0AyWxrA
lpc_rms=-28.36
offset=489
pitch_keycenter=a4
sample=Clarinet_fall_PP_A4.opus
</region>

<region>
hikey=a5
hivel=127
lokey=g#5
lovel=1
lpc=N5HsQfqwocKK5LBCQFNKwioepEFpo9/A7PFYv4onsr91oQ5BvxYhwRteLUC2qNhA4InwwLkA7D9t7UFAVu2AwCh0oUC4NOTA0w3dQNWSq8B6T7w/uO/UQJ/cJMFaRpBA
lpc_rms=-26.35
offset=7468
pitch_keycenter=a5
sample=Clarinet_fall_PP_A5.opus
</region>

<region>
hikey=b3
hivel=127
lokey=a#3
lovel=1
lpc=62TdQlGLYsMI4gND06KBwfy6JsBasR7BwO0qQa2OrD8e2ZRB05rmwBXId8DzPxPByRGyvZGLEj/2aoTApJlVPzC/tj9pqAtBjgaNv2XvQMCLk0xAVeEgQLqVkMHKQ0dB
lpc_rms=-25.32
offset=2005
pitch_keycenter=b3
sample=Clarinet_fall_PP_B3.opus
</region>

<region>
hikey=b4
hivel=127
lokey=a#4
lovel=1
lpc=Bb+UQrvw5cJ30gtCV0GCwZ+shUHhttRAicQaPtr+i0AtN8Y/zR3lv7nCFMFt325A7dFuQIvgucCbDmo/uqIowHQikECFD4c+58wDQYaWtcB+GyY7YNC5vw5sUMCOIQhA
lpc_rms=-26.65
offset=8522
pitch_keycenter=b4
sample=Clarinet_fall_PP_B4.opus
</region>

<region>
hikey=b5
hivel=127
lokey=a#5
lovel=1
lpc=FjRmQuOkC8PKMA5DtYetwl3uKEKdl6DBE1a9QL46uL+Oc59AdUepQOFLzsEFGtlBDMmNQOhUEcJghRFC8Rs9wQjRpb/yLrHAwMhEQaq8mcDoyAbBEMzgQcamPsK4Yt1B
lpc_rms=-20.17
offset=14738
pitch_keycenter=b5
sample=Clarinet_fall_PP_B5.opus
</region>

<region>
hikey=c#4
hivel=127
lokey=c4
lovel=1
lpc=3BBHQusbqsIk1f5BCGtRwWqIhEGFrK1Al4wOv8TddcDHZyRAPINOvwdsQcBLqsY/RL+5PzMq1cAPyIVAP6ORwAP2d0B9/0JAXI8oQOp8GsCw+BzAaPHvv8xuncCWWuVA
lpc_rms=-31.85
offset=4129
pitch_keycenter=c#4
sample=Clarinet_fall_PP_C#4.opus
</region>

<region>
hikey=c#5
hivel=127
lokey=c5
lovel=1
lpc=quW+QtjdHsPIOF5CyVk5wWmXfkGu+NhA5Cj1vwmOij3IXWi/HrnCQMWp/sCPTipBJMkRwX9DED+RGY7AEM77QDMDCcGn71lBoPsDv7bqmcAgR6s/GIABwbCbpMCCGBJB
lpc_rms=-23.16
offset=7054
pitch_keycenter=c#5
sample=Clarinet_fall_PP_C#5.opus
</region>

<region>
hikey=c#6
hivel=127
lokey=c6
lovel=1
lpc=Y1QOQpiSk8LiyYFCv3MpwugVxkGW6wbBEY+EvpKzPEArOo/A0j+PQKiPJsD6Kdk/WM73P0qPusB+fg9BZmNCwaHPYkGxGl/BqidUQbgR78A+ibS/JiuCwdyx50FJISPB
lpc_rms=-25.89
offset=934
pitch_keycenter=c#6
sample=Clarinet_fall_PP_C#6.opus
</region>

<region>
hikey=d#4
hivel=127
lokey=d4
lovel=1
lpc=u1RQQjOxmMLeWbFBBNRMwee9JkHqtso/FNHKQL+vXcCfWXlAZiJfPS57pr//wW8/lhnmvTUqf8CZzzy+hiDSvuBdoUA022nAdnJeP8xOkL8ujI8/4Nl8wO7UlD+mNlZA
lpc_rms=-30.64
offset=441
pitch_keycenter=d#4
sample=Clarinet_fall_PP_D#4.opus
</region>

<region>
hikey=d#5
hivel=127
lokey=d5
lovel=1
lpc=v04VQqDZncK+mj1CnLUpweVQTkH6LtvALsBHP4Fj3cA2QMZApojpP4WDQMBD1jtA2bEcwN7liMB6LFVAb8k3wAIY30CMbry9UXLtv0+dGMBuE0m/cyPzPvH3g0Dl8inA
lpc_rms=-28.74
offset=19073
pitch_keycenter=d#5
sample=Clarinet_fall_PP_D#5.opus
</region>

<region>
hikey=d#6
hivel=127
lokey=d6
lovel=1
lpc=5Y/3QQzBosIJcLVCgLNfwtgPyUFlI2LB6ASDQao198GCTCRCErPlwUNOu0BvpiRBB1tXwawKxEA6i6xAqGMMweQdHUBRIL9AWWx9wdDmEkEq6HVBAefGwbREUkGLIc+/
lpc_rms=-19.07
offset=1469
pitch_keycenter=d#6
sample=Clarinet_fall_PP_D#6.opus
</region>

<region>
hikey=f4
hivel=127
lokey=e4
lovel=1
lpc=FjypQiNS+cK6/DBCkgXPwd5alkHaaUW+clIpQZPpasEJOlVBXn1qwE+wAMDl9slAjRMFQNYXdsD1Lio/xNe3wFPViECaA6LAiBY+vVXtXL94ABA/jaFoQKefK77Mmfg/
lpc_rms=-26.54
offset=3917
pitch_keycenter=f4
sample=Clarinet_fall_PP_F4.opus
</region>

<region>
hikey=f5
hivel=127
lokey=e5
lovel=1
lpc=IY4SQrn+csJJqHVBs/5XQFf90EAs/0nAmx4RQROoNsFLZj9BPRDOwMrkw78Q8aw//jlvv8iiNz99tom/lxEEP0e69rncmSFAxVGyvNam3r8EEqq/UUA+Pnq08b9fNDdA
lpc_rms=-29.86
offset=2561
pitch_keycenter=f5
sample=Clarinet_fall_PP_F5.opus
</region>

<region>
hikey=f6
hivel=127
lokey=e6
lovel=1
lpc=rYXCQaQsZsL1fINCgcc6wi7e1UEztdvANH8xwNNgiT9h4I1AdB1WwEQhOj+JPlpATOCZwLSH5kC0vrjA/sBRQO4rlsCLRKnAVO3aQXG/FcLnVwRCtP/TwcX1cUHOWWHA
lpc_rms=-21.57
offset=4751
pitch_keycenter=f6
sample=Clarinet_fall_PP_F6.opus
</region>

<region>
hikey=g4
hivel=127
lokey=f#4
lovel=1
lpc=DazMQv40NMNrvpxC3o47wQWCRkGhIp/AUK4fQW1mA8HvKQBBhA3Tv8/RBUAReSdARe0OwH6thcDitZDAUK/rwD+7IEBI/5RAhBS4QHecUsDsAhFAEdBEQEEOpEA7zv7A
lpc_rms=-26.05
offset=486
pitch_keycenter=g4
sample=Clarinet_fall_PP_G4.opus
</region>

<region>
hikey=g5
hivel=127
lokey=f#5
lovel=1
lpc=+JJHQlFS7ML3gL9CLQHnwaEgFkFNIV/BhrPHQKrDZkCCkC5AseQQwQ+Pu78c8RpBpokBwDS4vMDczYZAoCN+wGmbBkG4P8rAFQOVP2RaGsDhTIdATxJwQPm/HMH6HGhA
lpc_rms=-24.76
offset=4759
pitch_keycenter=g5
sample=Clarinet_fall_PP_G5.opus
</region>
</group>

<group>
ampeg_attack=0.01
ampeg_release=0.05
group_label=Sustain_MF
lpc_hicc1=84
lpc_locc1=43

<region>
hikey=a5
hivel=127
lokey=g#5
lovel=1
lpc=4X0TQg9i3cJnTwxDQPS/wuHg8UF40FVBYFWnwQF0p0DF8IxAlCJJQLpcIMEu0fhAGMSGwF+6TsBV8VdB625JwZEnE0At6BFB2t5vwRuqG0FpCZm+DhC1Pp+ws8Aks1hA
lpc_rms=-14.21
offset=8708
pitch_keycenter=a5
sample=Clarinet_fall_MF_A5.opus
</region>

<region>
hikey=b5
hivel=127
lokey=a#5
lovel=1
lpc=RHAUQigw08IlrwFDe9OwwvXT9UFxU9tArS+OwWTMv0Bt5jZBunZcwbDykkAwM/o/sKYOQNdCOsEoRZxBd7SZwT1GEEFgvrE/3m0zv6+sqcD4loZALme0QEfbYMHNnwRB
lpc_rms=-17.04
offset=4705
pitch_keycenter=b5
sample=Clarinet_fall_MF_B5.opus
</region>

<region>
hikey=c#6
hivel=127
lokey=c6
lovel=1
lpc=nNaNQZ72TcIL+ohCdShawiEV40F2PBjB85a1QHMPPMF9mYJBJfRRwdnHukA35jW/UXOQPz5TGcB/q6m/0VgJQc0JQ8Fd4gZBaIiRv6XAhz4DMybBgzZtQeAH7MBGZIc/
lpc_rms=-20.92
offset=212
pitch_keycenter=c#6
sample=Clarinet_fall_MF_C#6.opus
</region>

<region>
hikey=d#6
hivel=127
lokey=d6
lovel=1
lpc=IxKeQRBATsIPvW1ClAwdwpF0mkFJu0PBczdEQc3HdsE6EYVBUS46wVqNj0CcQD0/dTg9vwjxCsA0VVhAZewHvixDc8CPB8tAnccMwbGXiMC7y+hBYhsOwjqjmkHFOWjA
lpc_rms=-15.28
offset=397
pitch_keycenter=d#6
sample=Clarinet_fall_MF_D#6.opus
</region>

<region>
hikey=f6
hivel=127
lokey=e6
lovel=1
lpc=GEFQQRrLBsLvczFCzo4gwiLR4kHIx1bBAhWEQDHhvcDpuENBIkdVwcECDEFZRtm/DK0PwLxnD0A4aEw/CEJBwHoNrz/EwqXAAJl/QRuHwMFYmM5B54uvwShVS0Hz1kvA
lpc_rms=-14.27
offset=4772
pitch_keycenter=f6
sample=Clarinet_fall_MF_F6.opus
</region>

<region>
hikey=C7
hivel=127
lokey=f#6
lovel=1
lpc=8X9qQcEnDsKPkR1C2hrIwdkVN0GplVHA/Siuvi66pL9Uk7NASSjFwFkpMkBzlKq8U8VRP2JpWcAOUexAIcOjwdtg/UEJ4cfB4agUQU2Hl75390/ABNStQFaNlsB1KgVA
lpc_rms=-15.87
offset=13655
pitch_keycenter=G6
sample=Clarinet_fall_MF_G6.opus
</region>

<region>
hivel=127
key=a3
lovel=1
lpc=A0drQl//LcPlbTxDYteuwgHD0EGzxfjBTs7OQS+ez8DDzo9AE8m6wNcXwEDmF1XBcItqQcSAJcHNVptAr4cqwD5i20CnBUXAowSvwAaybEBmPb098lbzPwyaScDm2rA/
lpc_rms=-18.87
offset=1717
sample=Clarinet_fall_MF_A3.opus
</region>

<region>
hikey=a4
hivel=127
lokey=g#4
lovel=1
lpc=6D8bQnP4zcLGccxCFdokwnrtJkGLAlzBrX8KQTmbqcAtLSxBN1LYwJIEZT/rIiXADv0fQHktpsBLrhhBypakwCd8FkBMparAHoESQEvPgj7499Q/LzO7QOw2UMEf1+xA
lpc_rms=-17.43
offset=924
pitch_keycenter=a4
sample=Clarinet_fall_MF_A4.opus
</region>

<region>
hikey=b3
hivel=127
lokey=a#3
lovel=1
lpc=wfT/Qbcdp8JzFaNCry0cwvJvWEGcRDXAEn7dwA48SkHXBjfBvdPSP/ULyUDbwNO/9RkPPjcKVMHiyqdBvGRuwYR92D90WulAZ1QEwFqkFcBrcY2/g0JqP7AKnj+8GNe+
lpc_rms=-20.39
offset=1628
pitch_keycenter=b3
sample=Clarinet_fall_MF_B3.opus
</region>

<region>
hikey=b4
hivel=127
lokey=a#4
lovel=1
lpc=0t2IQusmNcN5iCpD0nxuwn7ldEGmefPBfjfGQbDKN8HKyzJBAvQjwZlKlj9qSc9Apu9bwCrOHr+RQ27AYSlGQLv1/D9SeAFBizlCwcYPmMAeikRBZtcrwHCHNj/JFc+/
lpc_rms=-17.10
offset=383
pitch_keycenter=b4
sample=Clarinet_fall_MF_B4.opus
</region>

<region>
hikey=c#4
hivel=127
lokey=c4
lovel=1
lpc=ZodlQu5YK8M2KTlDjPumwlNgjEEDupvAjs6/wAugREAixw5AlYWLQUoc48H8b1xBfogTwLFoIMFlmKJBeoFSwTqukj8QVdRAL/rCwOqO+b9hciJAZTAjQZK0h8Hyfu5A
lpc_rms=-21.12
offset=892
pitch_keycenter=c#4
sample=Clarinet_fall_MF_C#4.opus
</region>

<region>
hikey=c#5
hivel=127
lokey=c5
lovel=1
lpc=TVq8QoBjgcNQk4lD2uoDwx24VUHDIDlBi70AwUu/jkEyw6HBuQQnQONSuj5hfPFBfvErwtU+rEEpFhQ/nRqBwVHan0AQaKtBVVbLv2fU88FkJZlBMGuBQe6s1sGmQBVB
lpc_rms=-13.66
offset=7365
pitch_keycenter=c#5
sample=Clarinet_fall_MF_C#5.opus
</region>

<region>
hikey=d#4
hivel=127
lokey=d4
lovel=1
lpc=N7NMQqKZEMOk0R5DXrvBwjcqWUL3geTBdWa9QBmaFMH+SYtByPEwwZQl+kApl2jA9+ngwCkzqkC0qb5AX6Q6wUIvL0FYRZy/g7fiwBBYLECXHKw+2GA7QC8+lMDlryxA
lpc_rms=-22.42
offset=1038
pitch_keycenter=d#4
sample=Clarinet_fall_MF_D#4.opus
</region>

<region>
hikey=d#5
hivel=127
lokey=d5
lovel=1
lpc=zbUYQpT41sJLEPBCNQ6GwkM310EdK3rBfmQXv99DDEG1Z1RAcEfgwAsTI7+Zpqc+EoRrQBveC8BVQcJA0D0rwTumxD9V7SxBMuc/wXE3h0AvvvFArah1wdyQVkHSbJzA
lpc_rms=-19.34
offset=1411
pitch_keycenter=d#5
sample=Clarinet_fall_MF_D#5.opus
</region>

<region>
hikey=f4
hivel=127
lokey=e4
lovel=1
lpc=yquJQq02RcNGqldD67P4wvlKg0LJLOLBOtItwTfinz+Gj7hBonygwR1zh0FY3xjBb68YwRIC1kB35V9BivKbwXJoREFX5d7AZAwjwDWChEEudbbBkmTDQbiKtcFLsSVB
lpc_rms=-19.15
offset=1155
pitch_keycenter=f4
sample=Clarinet_fall_MF_F4.opus
</region>

<region>
hikey=f5
hivel=127
lokey=e5
lovel=1
lpc=DrbrQVC1qsJFIs1Cl3SFwpjqvUHxaoBA3Z9NwTlMWEAblQxBlqlYwS79XEHLOrDA+BdLwFqJqr5/+M9A1Rr4wIhx50Dqb2bAJTPJP6RZnMD0r/dAnJ7WwK5PpkAPbxTA
lpc_rms=-19.56
offset=1224
pitch_keycenter=f5
sample=Clarinet_fall_MF_F5.opus
</region>

<region>
hikey=g4
hivel=127
lokey=f#4
lovel=1
lpc=Ue8oQt5H4sJhj+tCKQNswgLHpkH/znbB+OVAQSbQjcHWy8dBbZpAwUgr3b+h2MtAjIvuwPYzCT9RE9JAQ7uawMTCIMCkutZAEflzwO6Jmr/kR1LAhgVqQe/yd8HxQdJA
lpc_rms=-19.10
offset=869
pitch_keycenter=g4
sample=Clarinet_fall_MF_G4.opus
</region>

<region>
hikey=g5
hivel=127
lokey=f#5
lovel=1
lpc=KK/zQZ4wq8IE58JCiSBbwiUpKEGSvh5BDP8AwbD7vsDLKlNBSGYuwc0ZFkENt7LAJBX/v+LppUCq0pPAl1iwQDwFAMFWlzlB/9lAwbm7D0FAL8vAW8CuP0m0rEDAG5HA
lpc_rms=-17.76
offset=2592
pitch_keycenter=g5
sample=Clarinet_fall_MF_G5.opus
</region>
</group>

<group>
ampeg_attack=0.01
ampeg_release=0.05
group_label=Sustain_F
lpc_hicc1=127
lpc_locc1=85

<region>
hikey=a5
hivel=127
lokey=g#5
lovel=1
lpc=oKF3QaVEJMJKLldCG2w4wgsL7EEZkFzBjTufQKme4cCfinZBkn9uwYvWjkD87FZA26P+v8UHisCR6SVB2u0vwZu6kECgGGRAKlb1vzOU+MCAQl9BJ7hHwbmVB0GlRXvA
lpc_rms=-11.03
offset=13548
pitch_keycenter=a5
sample=Clarinet_fall_FF_A5.opus
</region>

<region>
hikey=b5
hivel=127
lokey=a#5
lovel=1
lpc=6V5UQfKH6cEEUQBC1nS7wSY0X0HoUwLBxQr/QPS0RsGAHWRBe1fuwMcJLj+qJiy/LCWzQKK8IsHZWURBvIMLwTPO0z+pjx6+0X64QGXXF8FNb/1A//wtwKHr87+l4hQ/
lpc_rms=-11.27
offset=13287
pitch_keycenter=b5
sample=Clarinet_fall_FF_B5.opus
</region>

<region>
hikey=c#6
hivel=127
lokey=c6
lovel=1
lpc=mdTbQBuqdMGlPo9BMGh3wWxAOUEB6uTAqZeVQK4IksDFzaZAsCCFwPRR7z8LUO49ZgACv1LyKD3+Wyo/GLIvv9Tcnr7CbpM/Pv9Yv/MbKz/4eCG/a4YhwKrHc0DVNty/
lpc_rms=-15.81
offset=12137
pitch_keycenter=c#6
sample=Clarinet_fall_FF_C#6.opus
</region>

<region>
hikey=d#6
hivel=127
lokey=d6
lovel=1
lpc=u5ksQU63xcFKS9xBDsCZwXtsOEHmZ+zAYprZQLv9BMHs3SZBwRwewQh5z0CEG/q/2qoCP+N3Qb8sgY6+AnstQEJdesATUXVADlhMwPV7jMBI9VFBelZcwWpw6UCvE+i/
lpc_rms=-10.75
offset=641
pitch_keycenter=d#6
sample=Clarinet_fall_FF_D#6.opus
</region>

<region>
hikey=f6
hivel=127
lokey=e6
lovel=1
lpc=YvCCQSByGMLCqTNClugSwjKPwEG84xvBwHgNQANbRMCI2qVANH2fwFWzKEBDnAg/DWePv0FijD5MeNI/mzoewH2InT/DEzjBoGLZQYwu/8EZudRBdKCJwWd3vUDoHuk+
lpc_rms=-12.15
pitch_keycenter=f6
sample=Clarinet_fall_FF_F6.opus
</region>

<region>
hikey=g5
hivel=127
lokey=f#5
lovel=1
lpc=ClZTQfw9EMKtDjpC8XcVwg2cokHZrKTASC0+PicEB8HI+4xBHBdowfm6kkBXui5A0DmAwFfR0r598AVBcm8mwYobjUBUzAdAv7YwwH55sL9YcRVBRRiAwXaBVkH4jY3A
lpc_rms=-13.32
offset=473
pitch_keycenter=g5
sample=Clarinet_fall_FF_G5.opus
</region>

<region>
hikey=C7
hivel=127
lokey=f#6
lovel=1
lpc=/uo3QSRexsHEKdRBbaqRwahuMEF5sLvAtPB8QNhvjcAljbVAW0a7wB26lEB+eTHALHsiQCzgJMByVjtAOtI1wYuZnUGLxovBKJYaQYzcj8DwK+E/iKSyvpdd/bzgrfo+
lpc_rms=-14.58
offset=19
pitch_keycenter=G6
sample=Clarinet_fall_FF_G6.opus
</region>

<region>
hivel=127
key=a3
lovel=1
lpc=1AnjQfzHn8JveqpCrs0ZwsF4nEB9meHAp4JNQURbGcH2lTBB9v6EwRE5iUHk+iTBs2qkP6XdIz+4MYNAmq7MwIQwckBW5SJAMzPjwOcmO0Bn7Iw/pkArQKn7oMCGIwVA
lpc_rms=-15.45
offset=5100
sample=Clarinet_fall_FF_A3.opus
</region>

<region>
hikey=a4
hivel=127
lokey=g#4
lovel=1
lpc=nl6DQYxxG8LuxRlCsC+xwUvUS0Hd8SHBlwYPQV6yO8GTuTVBVdTPv42Hy8CPXMZAtMGUwDZX1T84TzNAgg4nwBdn7L7TikI/wTzbP/gNa8DK5Po/d8jKPxE6OsDR4w1A
lpc_rms=-16.18
offset=598
pitch_keycenter=a4
sample=Clarinet_fall_FF_A4.opus
</region>

<region>
end=155822
hikey=b3
hivel=127
lokey=a#3
lovel=1
lpc=gcS+QR1ShsK+Qp5CLg5PwhXUm0FWRfm9ZCuUwCqwJsDWmR5B/ic8wU65N0H05AnBL8OfQBDIvsC20uRAFbq3wFkJE0AkKY1A8BsQwWfM8EDOSJnA3DMpQFPOmr20zaC+
lpc_rms=-17.91
offset=3758
pitch_keycenter=b3
sample=Clarinet_fall_FF_B3.opus
</region>

<region>
hikey=b4
hivel=127
lokey=a#4
lovel=1
lpc=wCjsQYMinMJEVKdCVys9wnUV7UH2/AnCVD/AQXXO4sCANYpAEZTowAqqHUHkCXLB4pFfQeezLsCenHPAj9sOQJO8hMBwgABBXU2Rv/N0I8Ft2SBB7hT3vlRQAsAGdfU+
lpc_rms=-14.58
offset=365
pitch_keycenter=b4
sample=Clarinet_fall_FF_B4.opus
</region>

<region>
hikey=c#4
hivel=127
lokey=c4
lovel=1
lpc=SxUnQvxqB8NQdzBD0LjrwkkdRkLpWMXBxhOFQRV1gcEqqs5BvOC+wYhFF0HidGXATd2fQALeUcC++MdA//Ggwfy7uEFdN5fAiYQlwWcx30Aptk5Ad+mlwHPThz/YJGo+
lpc_rms=-16.66
offset=1055
pitch_keycenter=c#4
sample=Clarinet_fall_FF_C#4.opus
</region>

<region>
hikey=c#5
hivel=127
lokey=c5
lovel=1
lpc=48oZQmQYzsJsmeFC2mGCwrh38EGcWuXBkx0DQqDPBMIh/dhBObWFwfFlWUHgLDLBFPzVP7JfGUFBf4nBxYWmQWbhy8H38uJBZdSPwZDXiUBFFHs/UEaav3BkekAAjFjA
lpc_rms=-13.10
offset=12735
pitch_keycenter=c#5
sample=Clarinet_fall_FF_C#5.opus
</region>

<region>
hikey=d#4
hivel=127
lokey=d4
lovel=1
lpc=7omaQSlCXcK1oYBC7UUiwu3lnEGIsi/BLBPkQJrOHMFZvTBBwglfwFMWQMDofE1AoUBWwNnAW0BT6U0/ouvUwIQR6EDP1UHAsJqvPU7tpz+UY9W/Pts4OwisHj83RoA9
lpc_rms=-20.90
offset=1217
pitch_keycenter=d#4
sample=Clarinet_fall_FF_D#4.opus
</region>

<region>
hikey=d#5
hivel=127
lokey=d5
lovel=1
lpc=KSZiQVBiDMJPLTNCAeoowuXU+0H7QobBboxJQDNnCj8ALktAuB/ywJ3KPkE99U/BEUIEQZ6ukcAbb6BAbV2mwI43Z0AuT9q+RX+Mv4tloUC1ecXAxJRBQOgumb815o29
lpc_rms=-13.30
offset=7294
pitch_keycenter=d#5
sample=Clarinet_fall_FF_D#5.opus
</region>

<region>
hikey=f4
hivel=127
lokey=e4
lovel=1
lpc=5AYAQu88ucIZG+ZCA06rwvBgYULswizCqp/xQWBQ3cENkelBp2c7wXGxM8FmT59Bd3eewU/CLEGgAfpAS4SJwdrWHkEdWnXAXjmLQGRK3b9MPxDAXDIQQPlk874FQ9Q+
lpc_rms=-15.42
offset=16637
pitch_keycenter=f4
sample=Clarinet_fall_FF_F4.opus
</region>

<region>
hikey=f5
hivel=127
lokey=e5
lovel=1
lpc=P5OhQRTuXcIKDo1CRvdlwgcD+0EPq57AKv7ewJq8NEC/TT5AA0uJwMWYvUC17w3B6zY/QTrgaMHm2H5BZExDwVqFxkA/0cU/z1IKwfgkMkGSXgjBDS9WQIJH0j7HWBC/
lpc_rms=-11.81
offset=603
pitch_keycenter=f5
sample=Clarinet_fall_FF_F5.opus
</region>

<region>
hikey=g4
hivel=127
lokey=f#4
lovel=1
lpc=Ej/cQYFtmMJ6LblCDMeMwmk9PEKfoAHCUBOtQYU/yMHkEgdC7RP2wQbyokHdd+zAYz6tv0kjhL/8vN5AZ7kywW+ZYUFslPDAgDQCwbp/ekHIgmzBbkmAQQpMbcHnYNpA
lpc_rms=-17.87
offset=2130
pitch_keycenter=g4
sample=Clarinet_fall_FF_G4.opus
</region>
</group>

<group>
ampeg_attack=0.05
ampeg_release=5.0
group_label=Sustain_P__REL
lpc_hicc1=42
lpc_locc1=0
offset=48000
trigger=release

<region>
end=158230
hikey=C7
hivel=127
lokey=f#6
lovel=1
lpc=AM9vQcVNDMIOixpCbfHFwahWXkFl8vzAcFENQcfvTcEgpWtBqwYKwblTNUDF9Cm/NX5sQICjzcB1tR5BHKyIwbWin0EmGSvBdzhRP61Qyz+oDzi+Qamnv1LD0z+UHXW+
lpc_rms=-22.99
offset=85014
pitch_keycenter=G6
sample=Clarinet_fall_PP_G6.opus
</region>

<region>
hivel=127
key=a3
lovel=1
lpc=i+HUQqDNRMM5W9xCOUvOwfkEFkBLnvTAe50eQDhhhMBjn0JBoHkEQUOwJUAyJJLASBd/wHszcEB3GkNAglrrwGz5h8CX6tNApL2kwDKYBMD62XNAMCU+wM54C8Aiz8xA
lpc_rms=-27.09
offset=108768
sample=Clarinet_fall_PP_A3.opus
</region>

<region>
hikey=a4
hivel=127
lokey=g#4
lovel=1
lpc=9MiCQjBx8sL6XGNCzMstwYvkIUHsqhVA0ECIQKRsI8HyOfFAd5MfwEXZ4r/YJatA/24IwFMGrMAO0YA/wK/MwA7UJ0Fe4AfALiOWvSz6DT8aDX1AQCiYwBKUP0AyWxrA
lpc_rms=-28.36
offset=97960
pitch_keycenter=a4
sample=Clarinet_fall_PP_A4.opus
</region>

<region>
hikey=a5
hivel=127
lokey=g#5
lovel=1
lpc=N5HsQfqwocKK5LBCQFNKwioepEFpo9/A7PFYv4onsr91oQ5BvxYhwRteLUC2qNhA4InwwLkA7D9t7UFAVu2AwCh0oUC4NOTA0w3dQNWSq8B6T7w/uO/UQJ/cJMFaRpBA
lpc_rms=-26.35
offset=93249
pitch_keycenter=a5
sample=Clarinet_fall_PP_A5.opus
</region>

<region>
hikey=b3
hivel=127
lokey=a#3
lovel=1
lpc=62TdQlGLYsMI4gND06KBwfy6JsBasR7BwO0qQa2OrD8e2ZRB05rmwBXId8DzPxPByRGyvZGLEj/2aoTApJlVPzC/tj9pqAtBjgaNv2XvQMCLk0xAVeEgQLqVkMHKQ0dB
lpc_rms=-25.32
offset=110037
pitch_keycenter=b3
sample=Clarinet_fall_PP_B3.opus
</region>

<region>
hikey=b4
hivel=127
lokey=a#4
lovel=1
lpc=Bb+UQrvw5cJ30gtCV0GCwZ+shUHhttRAicQaPtr+i0AtN8Y/zR3lv7nCFMFt325A7dFuQIvgucCbDmo/uqIowHQikECFD4c+58wDQYaWtcB+GyY7YNC5vw5sUMCOIQhA
lpc_rms=-26.65
offset=108989
pitch_keycenter=b4
sample=Clarinet_fall_PP_B4.opus
</region>

<region>
hikey=b5
hivel=127
lokey=a#5
lovel=1
lpc=FjRmQuOkC8PKMA5DtYetwl3uKEKdl6DBE1a9QL46uL+Oc59AdUepQOFLzsEFGtlBDMmNQOhUEcJghRFC8Rs9wQjRpb/yLrHAwMhEQaq8mcDoyAbBEMzgQcamPsK4Yt1B
lpc_rms=-20.17
offset=95844
pitch_keycenter=b5
sample=Clarinet_fall_PP_B5.opus
</region>

<region>
end=145303
hikey=c#4
hivel=127
lokey=c4
lovel=1
lpc=3BBHQusbqsIk1f5BCGtRwWqIhEGFrK1Al4wOv8TddcDHZyRAPINOvwdsQcBLqsY/RL+5PzMq1cAPyIVAP6ORwAP2d0B9/0JAXI8oQOp8GsCw+BzAaPHvv8xuncCWWuVA
lpc_rms=-31.85
offset=105367
pitch_keycenter=c#4
sample=Clarinet_fall_PP_C#4.opus
</region>

<region>
hikey=c#5
hivel=127
lokey=c5
lovel=1
lpc=quW+QtjdHsPIOF5CyVk5wWmXfkGu+NhA5Cj1vwmOij3IXWi/HrnCQMWp/sCPTipBJMkRwX9DED+RGY7AEM77QDMDCcGn71lBoPsDv7bqmcAgR6s/GIABwbCbpMCCGBJB
lpc_rms=-23.16
offset=108250
pitch_keycenter=c#5
sample=Clarinet_fall_PP_C#5.opus
</region>

<region>
hikey=c#6
hivel=127
lokey=c6
lovel=1
lpc=Y1QOQpiSk8LiyYFCv3MpwugVxkGW6wbBEY+EvpKzPEArOo/A0j+PQKiPJsD6Kdk/WM73P0qPusB+fg9BZmNCwaHPYkGxGl/BqidUQbgR78A+ibS/JiuCwdyx50FJISPB
lpc_rms=-25.89
offset=92762
pitch_keycenter=c#6
sample=Clarinet_fall_PP_C#6.opus
</region>

<region>
end=155747
hikey=d#4
hivel=127
lokey=d4
lovel=1
lpc=u1RQQjOxmMLeWbFBBNRMwee9JkHqtso/FNHKQL+vXcCfWXlAZiJfPS57pr//wW8/lhnmvTUqf8CZzzy+hiDSvuBdoUA022nAdnJeP8xOkL8ujI8/4Nl8wO7UlD+mNlZA
lpc_rms=-30.64
offset=107080
pitch_keycenter=d#4
sample=Clarinet_fall_PP_D#4.opus
</region>

<region>
hikey=d#5
hivel=127
lokey=d5
lovel=1
lpc=v04VQqDZncK+mj1CnLUpweVQTkH6LtvALsBHP4Fj3cA2QMZApojpP4WDQMBD1jtA2bEcwN7liMB6LFVAb8k3wAIY30CMbry9UXLtv0+dGMBuE0m/cyPzPvH3g0Dl8inA
lpc_rms=-28.74
offset=111281
pitch_keycenter=d#5
sample=Clarinet_fall_PP_D#5.opus
</region>

<region>
hikey=d#6
hivel=127
lokey=d6
lovel=1
lpc=5Y/3QQzBosIJcLVCgLNfwtgPyUFlI2LB6ASDQao198GCTCRCErPlwUNOu0BvpiRBB1tXwawKxEA6i6xAqGMMweQdHUBRIL9AWWx9wdDmEkEq6HVBAefGwbREUkGLIc+/
lpc_rms=-19.07
offset=84987
pitch_keycenter=d#6
sample=Clarinet_fall_PP_D#6.opus
</region>

<region>
hikey=f4
hivel=127
lokey=e4
lovel=1
lpc=FjypQiNS+cK6/DBCkgXPwd5alkHaaUW+clIpQZPpasEJOlVBXn1qwE+wAMDl9slAjRMFQNYXdsD1Lio/xNe3wFPViECaA6LAiBY+vVXtXL94ABA/jaFoQKefK77Mmfg/
lpc_rms=-26.54
offset=110595
pitch_keycenter=f4
sample=Clarinet_fall_PP_F4.opus
</region>

<region>
hikey=f5
hivel=127
lokey=e5
lovel=1
lpc=IY4SQrn+csJJqHVBs/5XQFf90EAs/0nAmx4RQROoNsFLZj9BPRDOwMrkw78Q8aw//jlvv8iiNz99tom/lxEEP0e69rncmSFAxVGyvNam3r8EEqq/UUA+Pnq08b9fNDdA
lpc_rms=-29.86
offset=106735
pitch_keycenter=f5
sample=Clarinet_fall_PP_F5.opus
</region>

<region>
hikey=f6
hivel=127
lokey=e6
lovel=1
lpc=rYXCQaQsZsL1fINCgcc6wi7e1UEztdvANH8xwNNgiT9h4I1AdB1WwEQhOj+JPlpATOCZwLSH5kC0vrjA/sBRQO4rlsCLRKnAVO3aQXG/FcLnVwRCtP/TwcX1cUHOWWHA
lpc_rms=-21.57
offset=91712
pitch_keycenter=f6
sample=Clarinet_fall_PP_F6.opus
</region>

<region>
hikey=g4
hivel=127
lokey=f#4
lovel=1
lpc=DazMQv40NMNrvpxC3o47wQWCRkGhIp/AUK4fQW1mA8HvKQBBhA3Tv8/RBUAReSdARe0OwH6thcDitZDAUK/rwD+7IEBI/5RAhBS4QHecUsDsAhFAEdBEQEEOpEA7zv7A
lpc_rms=-26.05
offset=105321
pitch_keycenter=g4
sample=Clarinet_fall_PP_G4.opus
</region>

<region>
hikey=g5
hivel=127
lokey=f#5
lovel=1
lpc=+JJHQlFS7ML3gL9CLQHnwaEgFkFNIV/BhrPHQKrDZkCCkC5AseQQwQ+Pu78c8RpBpokBwDS4vMDczYZAoCN+wGmbBkG4P8rAFQOVP2RaGsDhTIdATxJwQPm/HMH6HGhA
lpc_rms=-24.76
offset=99228
pitch_keycenter=g5
sample=Clarinet_fall_PP_G5.opus
</region>
</group>

<group>
ampeg_attack=0.05
ampeg_release=5.0
group_label=Sustain_MF__REL
lpc_hicc1=84
lpc_locc1=43
offset=48000
trigger=release

<region>
hikey=a5
hivel=127
lokey=g#5
lovel=1
lpc=4X0TQg9i3cJnTwxDQPS/wuHg8UF40FVBYFWnwQF0p0DF8IxAlCJJQLpcIMEu0fhAGMSGwF+6TsBV8VdB625JwZEnE0At6BFB2t5vwRuqG0FpCZm+DhC1Pp+ws8Aks1hA
lpc_rms=-14.21
offset=107465
pitch_keycenter=a5
sample=Clarinet_fall_MF_A5.opus
</region>

<region>
hikey=b5
hivel=127
lokey=a#5
lovel=1
lpc=RHAUQigw08IlrwFDe9OwwvXT9UFxU9tArS+OwWTMv0Bt5jZBunZcwbDykkAwM/o/sKYOQNdCOsEoRZxBd7SZwT1GEEFgvrE/3m0zv6+sqcD4loZALme0QEfbYMHNnwRB
lpc_rms=-17.04
offset=106078
pitch_keycenter=b5
sample=Clarinet_fall_MF_B5.opus
</region>

<region>
hikey=c#6
hivel=127
lokey=c6
lovel=1
lpc=nNaNQZ72TcIL+ohCdShawiEV40F2PBjB85a1QHMPPMF9mYJBJfRRwdnHukA35jW/UXOQPz5TGcB/q6m/0VgJQc0JQ8Fd4gZBaIiRv6XAhz4DMybBgzZtQeAH7MBGZIc/
lpc_rms=-20.92
offset=103484
pitch_keycenter=c#6
sample=Clarinet_fall_MF_C#6.opus
</region>

<region>
hikey=d#6
hivel=127
lokey=d6
lovel=1
lpc=IxKeQRBATsIPvW1ClAwdwpF0mkFJu0PBczdEQc3HdsE6EYVBUS46wVqNj0CcQD0/dTg9vwjxCsA0VVhAZewHvixDc8CPB8tAnccMwbGXiMC7y+hBYhsOwjqjmkHFOWjA
lpc_rms=-15.28
offset=92632
pitch_keycenter=d#6
sample=Clarinet_fall_MF_D#6.opus
</region>

<region>
hikey=f6
hivel=127
lokey=e6
lovel=1
lpc=GEFQQRrLBsLvczFCzo4gwiLR4kHIx1bBAhWEQDHhvcDpuENBIkdVwcECDEFZRtm/DK0PwLxnD0A4aEw/CEJBwHoNrz/EwqXAAJl/QRuHwMFYmM5B54uvwShVS0Hz1kvA
lpc_rms=-14.27
offset=109589
pitch_keycenter=f6
sample=Clarinet_fall_MF_F6.opus
</region>

<region>
hikey=C7
hivel=127
lokey=f#6
lovel=1
lpc=8X9qQcEnDsKPkR1C2hrIwdkVN0GplVHA/Siuvi66pL9Uk7NASSjFwFkpMkBzlKq8U8VRP2JpWcAOUexAIcOjwdtg/UEJ4cfB4agUQU2Hl75390/ABNStQFaNlsB1KgVA
lpc_rms=-15.87
offset=113815
pitch_keycenter=G6
sample=Clarinet_fall_MF_G6.opus
</region>

<region>
end=138421
hivel=127
key=a3
lovel=1
lpc=A0drQl//LcPlbTxDYteuwgHD0EGzxfjBTs7OQS+ez8DDzo9AE8m6wNcXwEDmF1XBcItqQcSAJcHNVptAr4cqwD5i20CnBUXAowSvwAaybEBmPb098lbzPwyaScDm2rA/
lpc_rms=-18.87
offset=112821
sample=Clarinet_fall_MF_A3.opus
</region>

<region>
hikey=a4
hivel=127
lokey=g#4
lovel=1
lpc=6D8bQnP4zcLGccxCFdokwnrtJkGLAlzBrX8KQTmbqcAtLSxBN1LYwJIEZT/rIiXADv0fQHktpsBLrhhBypakwCd8FkBMparAHoESQEvPgj7499Q/LzO7QOw2UMEf1+xA
lpc_rms=-17.43
offset=102210
pitch_keycenter=a4
sample=Clarinet_fall_MF_A4.opus
</region>

<region>
end=153330
hikey=b3
hivel=127
lokey=a#3
lovel=1
lpc=wfT/Qbcdp8JzFaNCry0cwvJvWEGcRDXAEn7dwA48SkHXBjfBvdPSP/ULyUDbwNO/9RkPPjcKVMHiyqdBvGRuwYR92D90WulAZ1QEwFqkFcBrcY2/g0JqP7AKnj+8GNe+
lpc_rms=-20.39
offset=106882
pitch_keycenter=b3
sample=Clarinet_fall_MF_B3.opus
</region>

<region>
hikey=b4
hivel=127
lokey=a#4
lovel=1
lpc=0t2IQusmNcN5iCpD0nxuwn7ldEGmefPBfjfGQbDKN8HKyzJBAvQjwZlKlj9qSc9Apu9bwCrOHr+RQ27AYSlGQLv1/D9SeAFBizlCwcYPmMAeikRBZtcrwHCHNj/JFc+/
lpc_rms=-17.10
offset=102848
pitch_keycenter=b4
sample=Clarinet_fall_MF_B4.opus
</region>

<region>
hikey=c#4
hivel=127
lokey=c4
lovel=1
lpc=ZodlQu5YK8M2KTlDjPumwlNgjEEDupvAjs6/wAugREAixw5AlYWLQUoc48H8b1xBfogTwLFoIMFlmKJBeoFSwTqukj8QVdRAL/rCwOqO+b9hciJAZTAjQZK0h8Hyfu5A
lpc_rms=-21.12
offset=102135
pitch_keycenter=c#4
sample=Clarinet_fall_MF_C#4.opus
</region>

<region>
hikey=c#5
hivel=127
lokey=c5
lovel=1
lpc=TVq8QoBjgcNQk4lD2uoDwx24VUHDIDlBi70AwUu/jkEyw6HBuQQnQONSuj5hfPFBfvErwtU+rEEpFhQ/nRqBwVHan0AQaKtBVVbLv2fU88FkJZlBMGuBQe6s1sGmQBVB
lpc_rms=-13.66
offset=108547
pitch_keycenter=c#5
sample=Clarinet_fall_MF_C#5.opus
</region>

<region>
hikey=d#4
hivel=127
lokey=d4
lovel=1
lpc=N7NMQqKZEMOk0R5DXrvBwjcqWUL3geTBdWa9QBmaFMH+SYtByPEwwZQl+kApl2jA9+ngwCkzqkC0qb5AX6Q6wUIvL0FYRZy/g7fiwBBYLECXHKw+2GA7QC8+lMDlryxA
lpc_rms=-22.42
offset=115189
pitch_keycenter=d#4
sample=Clarinet_fall_MF_D#4.opus
</region>

<region>
hikey=d#5
hivel=127
lokey=d5
lovel=1
lpc=zbUYQpT41sJLEPBCNQ6GwkM310EdK3rBfmQXv99DDEG1Z1RAcEfgwAsTI7+Zpqc+EoRrQBveC8BVQcJA0D0rwTumxD9V7SxBMuc/wXE3h0AvvvFArah1wdyQVkHSbJzA
lpc_rms=-19.34
offset=104045
pitch_keycenter=d#5
sample=Clarinet_fall_MF_D#5.opus
</region>

<region>
hikey=f4
hivel=127
lokey=e4
lovel=1
lpc=yquJQq02RcNGqldD67P4wvlKg0LJLOLBOtItwTfinz+Gj7hBonygwR1zh0FY3xjBb68YwRIC1kB35V9BivKbwXJoREFX5d7AZAwjwDWChEEudbbBkmTDQbiKtcFLsSVB
lpc_rms=-19.15
offset=104971
pitch_keycenter=f4
sample=Clarinet_fall_MF_F4.opus
</region>

<region>
hikey=f5
hivel=127
lokey=e5
lovel=1
lpc=DrbrQVC1qsJFIs1Cl3SFwpjqvUHxaoBA3Z9NwTlMWEAblQxBlqlYwS79XEHLOrDA+BdLwFqJqr5/+M9A1Rr4wIhx50Dqb2bAJTPJP6RZnMD0r/dAnJ7WwK5PpkAPbxTA
lpc_rms=-19.56
offset=104270
pitch_keycenter=f5
sample=Clarinet_fall_MF_F5.opus
</region>

<region>
hikey=g4
hivel=127
lokey=f#4
lovel=1
lpc=Ue8oQt5H4sJhj+tCKQNswgLHpkH/znbB+OVAQSbQjcHWy8dBbZpAwUgr3b+h2MtAjIvuwPYzCT9RE9JAQ7uawMTCIMCkutZAEflzwO6Jmr/kR1LAhgVqQe/yd8HxQdJA
lpc_rms=-19.10
offset=101750
pitch_keycenter=g4
sample=Clarinet_fall_MF_G4.opus
</region>

<region>
hikey=g5
hivel=127
lokey=f#5
lovel=1
lpc=KK/zQZ4wq8IE58JCiSBbwiUpKEGSvh5BDP8AwbD7vsDLKlNBSGYuwc0ZFkENt7LAJBX/v+LppUCq0pPAl1iwQDwFAMFWlzlB/9lAwbm7D0FAL8vAW8CuP0m0rEDAG5HA
lpc_rms=-17.76
offset=100281
pitch_keycenter=g5
sample=Clarinet_fall_MF_G5.opus
</region>
</group>

<group>
ampeg_attack=0.05
ampeg_release=5.0
group_label=Sustain_F__REL
lpc_hicc1=127
lpc_locc1=85
offset=48000
trigger=release

<region>
hikey=a5
hivel=127
lokey=g#5
lovel=1
lpc=oKF3QaVEJMJKLldCG2w4wgsL7EEZkFzBjTufQKme4cCfinZBkn9uwYvWjkD87FZA26P+v8UHisCR6SVB2u0vwZu6kECgGGRAKlb1vzOU+MCAQl9BJ7hHwbmVB0GlRXvA
lpc_rms=-11.03
offset=103033
pitch_keycenter=a5
sample=Clarinet_fall_FF_A5.opus
</region>

<region>
hikey=b5
hivel=127
lokey=a#5
lovel=1
lpc=6V5UQfKH6cEEUQBC1nS7wSY0X0HoUwLBxQr/QPS0RsGAHWRBe1fuwMcJLj+qJiy/LCWzQKK8IsHZWURBvIMLwTPO0z+pjx6+0X64QGXXF8FNb/1A//wtwKHr87+l4hQ/
lpc_rms=-11.27
offset=110803
pitch_keycenter=b5
sample=Clarinet_fall_FF_B5.opus
</region>

<region>
end=191022
hikey=c#6
hivel=127
lokey=c6
lovel=1
lpc=mdTbQBuqdMGlPo9BMGh3wWxAOUEB6uTAqZeVQK4IksDFzaZAsCCFwPRR7z8LUO49ZgACv1LyKD3+Wyo/GLIvv9Tcnr7CbpM/Pv9Yv/MbKz/4eCG/a4YhwKrHc0DVNty/
lpc_rms=-15.81
offset=104087
pitch_keycenter=c#6
sample=Clarinet_fall_FF_C#6.opus
</region>

<region>
hikey=d#6
hivel=127
lokey=d6
lovel=1
lpc=u5ksQU63xcFKS9xBDsCZwXtsOEHmZ+zAYprZQLv9BMHs3SZBwRwewQh5z0CEG/q/2qoCP+N3Qb8sgY6+AnstQEJdesATUXVADlhMwPV7jMBI9VFBelZcwWpw6UCvE+i/
lpc_rms=-10.75
offset=88062
pitch_keycenter=d#6
sample=Clarinet_fall_FF_D#6.opus
</region>

<region>
hikey=f6
hivel=127
lokey=e6
lovel=1
lpc=YvCCQSByGMLCqTNClugSwjKPwEG84xvBwHgNQANbRMCI2qVANH2fwFWzKEBDnAg/DWePv0FijD5MeNI/mzoewH2InT/DEzjBoGLZQYwu/8EZudRBdKCJwWd3vUDoHuk+
lpc_rms=-12.15
offset=91319
pitch_keycenter=f6
sample=Clarinet_fall_FF_F6.opus
</region>

<region>
hikey=g5
hivel=127
lokey=f#5
lovel=1
lpc=ClZTQfw9EMKtDjpC8XcVwg2cokHZrKTASC0+PicEB8HI+4xBHBdowfm6kkBXui5A0DmAwFfR0r598AVBcm8mwYobjUBUzAdAv7YwwH55sL9YcRVBRRiAwXaBVkH4jY3A
lpc_rms=-13.32
offset=92857
pitch_keycenter=g5
sample=Clarinet_fall_FF_G5.opus
</region>

<region>
hikey=C7
hivel=127
lokey=f#6
lovel=1
lpc=/uo3QSRexsHEKdRBbaqRwahuMEF5sLvAtPB8QNhvjcAljbVAW0a7wB26lEB+eTHALHsiQCzgJMByVjtAOtI1wYuZnUGLxovBKJYaQYzcj8DwK+E/iKSyvpdd/bzgrfo+
lpc_rms=-14.58
offset=76809
pitch_keycenter=G6
sample=Clarinet_fall_FF_G6.opus
</region>

<region>
hivel=127
key=a3
lovel=1
lpc=1AnjQfzHn8JveqpCrs0ZwsF4nEB9meHAp4JNQURbGcH2lTBB9v6EwRE5iUHk+iTBs2qkP6XdIz+4MYNAmq7MwIQwckBW5SJAMzPjwOcmO0Bn7Iw/pkArQKn7oMCGIwVA
lpc_rms=-15.45
offset=114461
sample=Clarinet_fall_FF_A3.opus
</region>

<region>
end=165023
hikey=a4
hivel=127
lokey=g#4
lovel=1
lpc=nl6DQYxxG8LuxRlCsC+xwUvUS0Hd8SHBlwYPQV6yO8GTuTVBVdTPv42Hy8CPXMZAtMGUwDZX1T84TzNAgg4nwBdn7L7TikI/wTzbP/gNa8DK5Po/d8jKPxE6OsDR4w1A
lpc_rms=-16.18
offset=103071
pitch_keycenter=a4
sample=Clarinet_fall_FF_A4.opus
</region>

<region>
hikey=b3
hivel=127
lokey=a#3
lovel=1
lpc=gcS+QR1ShsK+Qp5CLg5PwhXUm0FWRfm9ZCuUwCqwJsDWmR5B/ic8wU65N0H05AnBL8OfQBDIvsC20uRAFbq3wFkJE0AkKY1A8BsQwWfM8EDOSJnA3DMpQFPOmr20zaC+
lpc_rms=-17.91
offset=106456
pitch_keycenter=b3
sample=Clarinet_fall_FF_B3.opus
</region>

<region>
hikey=b4
hivel=127
lokey=a#4
lovel=1
lpc=wCjsQYMinMJEVKdCVys9wnUV7UH2/AnCVD/AQXXO4sCANYpAEZTowAqqHUHkCXLB4pFfQeezLsCenHPAj9sOQJO8hMBwgABBXU2Rv/N0I8Ft2SBB7hT3vlRQAsAGdfU+
lpc_rms=-14.58
offset=101536
pitch_keycenter=b4
sample=Clarinet_fall_FF_B4.opus
</region>

<region>
hikey=c#4
hivel=127
lokey=c4
lovel=1
lpc=SxUnQvxqB8NQdzBD0LjrwkkdRkLpWMXBxhOFQRV1gcEqqs5BvOC+wYhFF0HidGXATd2fQALeUcC++MdA//Ggwfy7uEFdN5fAiYQlwWcx30Aptk5Ad+mlwHPThz/YJGo+
lpc_rms=-16.66
offset=104744
pitch_keycenter=c#4
sample=Clarinet_fall_FF_C#4.opus
</region>

<region>
hikey=c#5
hivel=127
lokey=c5
lovel=1
lpc=48oZQmQYzsJsmeFC2mGCwrh38EGcWuXBkx0DQqDPBMIh/dhBObWFwfFlWUHgLDLBFPzVP7JfGUFBf4nBxYWmQWbhy8H38uJBZdSPwZDXiUBFFHs/UEaav3BkekAAjFjA
lpc_rms=-13.10
offset=101993
pitch_keycenter=c#5
sample=Clarinet_fall_FF_C#5.opus
</region>

<region>
hikey=d#4
hivel=127
lokey=d4
lovel=1
lpc=7omaQSlCXcK1oYBC7UUiwu3lnEGIsi/BLBPkQJrOHMFZvTBBwglfwFMWQMDofE1AoUBWwNnAW0BT6U0/ouvUwIQR6EDP1UHAsJqvPU7tpz+UY9W/Pts4OwisHj83RoA9
lpc_rms=-20.90
offset=103204
pitch_keycenter=d#4
sample=Clarinet_fall_FF_D#4.opus
</region>

<region>
hikey=d#5
hivel=127
lokey=d5
lovel=1
lpc=KSZiQVBiDMJPLTNCAeoowuXU+0H7QobBboxJQDNnCj8ALktAuB/ywJ3KPkE99U/BEUIEQZ6ukcAbb6BAbV2mwI43Z0AuT9q+RX+Mv4tloUC1ecXAxJRBQOgumb815o29
lpc_rms=-13.30
offset=107134
pitch_keycenter=d#5
sample=Clarinet_fall_FF_D#5.opus
</region>

<region>
hikey=f4
hivel=127
lokey=e4
lovel=1
lpc=5AYAQu88ucIZG+ZCA06rwvBgYULswizCqp/xQWBQ3cENkelBp2c7wXGxM8FmT59Bd3eewU/CLEGgAfpAS4SJwdrWHkEdWnXAXjmLQGRK3b9MPxDAXDIQQPlk874FQ9Q+
lpc_rms=-15.42
offset=115677
pitch_keycenter=f4
sample=Clarinet_fall_FF_F4.opus
</region>

<region>
hikey=f5
hivel=127
lokey=e5
lovel=1
lpc=P5OhQRTuXcIKDo1CRvdlwgcD+0EPq57AKv7ewJq8NEC/TT5AA0uJwMWYvUC17w3B6zY/QTrgaMHm2H5BZExDwVqFxkA/0cU/z1IKwfgkMkGSXgjBDS9WQIJH0j7HWBC/
lpc_rms=-11.81
offset=94299
pitch_keycenter=f5
sample=Clarinet_fall_FF_F5.opus
</region>

<region>
end=169132
hikey=g4
hivel=127
lokey=f#4
lovel=1
lpc=Ej/cQYFtmMJ6LblCDMeMwmk9PEKfoAHCUBOtQYU/yMHkEgdC7RP2wQbyokHdd+zAYz6tv0kjhL/8vN5AZ7kywW+ZYUFslPDAgDQCwbp/ekHIgmzBbkmAQQpMbcHnYNpA
lpc_rms=-17.87
offset=105132
pitch_keycenter=g4
sample=Clarinet_fall_FF_G4.opus
</region>
</group>